<?xml version="1.0" encoding="utf-8"?>
<svg viewBox="468.956 -962.28 233.64 299.667" width="233.64" height="299.667" xmlns="http://www.w3.org/2000/svg">
  <path d="M 1958.93 2010.1 C 1917.05 2021.06 1914.99 2058.43 1928.2 2092.58 C 1912.06 2082.11 1903.15 2065.58 1898.65 2048.26 L 1892 2064.3 C 1883.88 2042.58 1890.24 2025.75 1897.38 2009.32 L 1886.72 2016.75 C 1889.46 1998.45 1899.63 1986.32 1912.55 1976.64 C 1924.97 1967.73 1937.5 1964.01 1949.92 1962.74 C 1924.09 1969.79 1911.47 1984.46 1900.9 2000.12 L 1915.78 1997.38 C 1905.4 2008.34 1896.79 2020.86 1895.72 2040.33 L 1903.84 2032.11 C 1904.43 2046.4 1905.89 2060.29 1915.78 2071.25 C 1910.59 2040.14 1923.41 2009.71 1958.63 2003.84 C 1976.83 2003.93 1959.81 2021.64 1972.23 2035.83 L 1969 2039.06 C 1973.41 2038.86 1992.68 2040.33 1993.95 2033.78 C 1994.15 2033.09 1994.05 2032.41 1993.86 2031.62 C 1962.06 2022.33 1996.89 2000.8 1984.27 1974.19 C 1978 1961.27 1967.63 1946.89 1958.34 1934.76 C 1939.45 1910.1 1960.2 1889.07 1973.8 1867.83 C 1998.94 1907.07 2008.14 1909.32 1981.72 1950.12 C 1989.55 1916.95 1995.03 1912.74 1974.29 1883.19 C 1926.93 1935.15 2009.41 1953.35 1991.9 2004.23 C 2025.75 2010.78 2038.08 2040.72 2032.99 2071.25 C 2042.87 2060.29 2044.34 2046.4 2044.93 2032.11 L 2053.05 2040.33 C 2051.97 2020.86 2043.36 2008.34 2032.99 1997.38 L 2047.86 2000.12 C 2037.3 1984.46 2024.68 1969.79 1998.75 1962.74 C 2011.27 1964.01 2023.7 1967.73 2036.22 1976.64 C 2049.14 1986.32 2059.31 1998.45 2061.95 2016.75 L 2051.39 2009.32 C 2058.53 2025.75 2064.89 2042.58 2056.77 2064.3 L 2050.12 2048.26 C 2045.61 2065.58 2036.71 2082.11 2020.57 2092.58 C 2033.68 2058.43 2031.72 2021.06 1989.84 2010.1 L 1989.84 2009.61 C 1987.4 2016.07 1985.54 2024.87 1993.66 2028.2 C 1995.62 2029.08 1998.06 2029.08 2000.8 2028.39 C 2001.78 2055.89 1975.75 2038.18 1957.95 2051.19 C 1959.51 2045.13 1962.15 2040.43 1965.58 2036.81 C 1959.12 2029.28 1959.02 2019.69 1958.93 2010.1" style="fill:#ffffff;fill-opacity:1;fill-rule:evenodd;stroke:none" id="path124" transform="matrix(1.333333, 0, 0, -1.333333, -2046.669556, 1827.826416)"/>
</svg>